<?xml version="1.0" encoding="utf-8"?>
<!-- Generator: Adobe Illustrator 25.0.0, SVG Export Plug-In . SVG Version: 6.00 Build 0)  -->
<svg version="1.1" id="Layer_1" xmlns="http://www.w3.org/2000/svg" xmlns:xlink="http://www.w3.org/1999/xlink" x="0px" y="0px"
	 viewBox="0 0 247.7 294" style="enable-background:new 0 0 247.7 294;" xml:space="preserve">
<style type="text/css">
	.st0{fill:#F4683D;}
	.st1{fill:#EAE8E8;}
	.st2{font-family:'Playfair144pt-Light';}
	.st3{font-size:9.08px;}
</style>
<path class="st0" d="M17.9,28.9c3-2.5,6.4-4.6,9.9-6.3c0.9-0.4,1.8-0.7,2.7-1.1L32,21l1.4-0.4c0.9-0.3,1.9-0.6,2.8-0.8l2.9-0.6
	c1-0.2,1.9-0.3,2.9-0.4c1-0.1,2-0.3,2.9-0.4c2-0.1,3.9-0.3,5.9-0.2h2.9l2.9,0.2c2,0.1,3.9,0.4,5.8,0.7c7.8,1.2,15.4,3.2,22.7,5.9
	c7.4,2.7,14.5,5.9,21.4,9.6c13.8,7.4,26.9,16.2,39,26.2c6,5,11.8,10.2,17.5,15.7c5.6,5.5,11,11.2,16.2,17.1s10.1,12,14.8,18.3
	s9.1,12.8,13.3,19.5c8.4,13.3,15.5,27.5,21.1,42.2c2.8,7.4,5,15,6.8,22.7c1.8,7.8,2.8,15.7,2.9,23.7c0,2,0,4-0.1,6l-0.2,3l-0.4,3
	c-0.2,2-0.7,4-1,6c-0.2,1-0.5,2-0.8,3c-0.2,1-0.5,2-0.9,2.9l-1,2.9c-0.4,0.9-0.8,1.9-1.2,2.8l-0.6,1.4l-0.8,1.3
	c-0.5,0.9-1,1.8-1.5,2.7c-4.5,7.1-10.9,12.7-18.5,16.2c-0.9,0.5-1.9,0.8-2.9,1.2l-1.4,0.6l-1.5,0.5c-1,0.3-2,0.6-3,0.9l-3,0.6
	c-1,0.2-2,0.3-3,0.5s-2,0.3-3,0.4c-2,0.1-4.1,0.3-6.1,0.2h-3l-3-0.2c-2-0.1-4-0.4-6-0.7c-7.9-1.2-15.7-3.2-23.2-6.1
	c-7.5-2.8-14.7-6-21.7-9.8c-7-3.8-13.7-7.9-20.2-12.4c-6.5-4.5-12.8-9.3-18.9-14.4s-11.8-10.5-17.5-16S62.9,205,57.7,199
	s-10-12.2-14.6-18.6s-8.9-13-13-19.8s-7.7-13.8-11.1-20.9c-3.4-7.1-6.4-14.4-9-21.9c-2.6-7.4-4.7-15.1-6.2-22.8
	c-1.6-7.7-2.3-15.6-2.3-23.5c0.1-2,0-3.9,0.2-5.9l0.2-3l0.4-2.9c0.2-2,0.7-3.9,1.1-5.8c0.2-1,0.5-1.9,0.8-2.8c0.2-1,0.5-1.9,0.9-2.8
	l1-2.8c0.4-0.9,0.8-1.8,1.2-2.7l0.6-1.3l0.7-1.3c0.5-0.8,1-1.7,1.5-2.5C12.5,34.5,15,31.5,17.9,28.9z M18.4,29.4
	C15.5,32,13,35,10.9,38.2c-0.5,0.8-1,1.7-1.5,2.5L8.7,42l-0.6,1.3c-0.4,0.9-0.8,1.8-1.2,2.6l-1,2.7c-0.3,0.9-0.6,1.8-0.8,2.8
	c-0.2,0.9-0.5,1.9-0.7,2.8c-0.3,1.9-0.8,3.8-1,5.7l-0.3,2.9L3,65.8c-0.2,1.9-0.1,3.9-0.1,5.8C3.1,79.4,4.2,87,6,94.6
	c1.8,7.5,4.2,14.9,7,22.1c5.8,14.4,12.9,28.2,21.4,41.2c4.2,6.5,8.6,12.8,13.3,19s9.6,12.2,14.6,18s10.4,11.5,15.9,16.9
	s11.2,10.6,17.1,15.6c11.7,10,24.4,18.8,37.9,26.3c6.7,3.7,13.7,7,20.8,9.7c7.1,2.7,14.5,4.8,22,6c1.9,0.2,3.7,0.6,5.6,0.7l2.8,0.2
	l2.8,0.1c1.9,0.1,3.7-0.1,5.6-0.1c0.9-0.1,1.8-0.2,2.8-0.3c0.9-0.1,1.8-0.2,2.8-0.4l2.7-0.5c0.9-0.2,1.8-0.5,2.7-0.8l1.3-0.4
	l1.3-0.5c0.8-0.3,1.7-0.6,2.6-1c6.8-3,12.5-7.9,16.5-14.1c0.5-0.8,0.9-1.6,1.4-2.4l0.7-1.2l0.6-1.3c0.4-0.8,0.8-1.7,1.2-2.5l1-2.6
	c0.3-0.9,0.6-1.8,0.8-2.7c0.2-0.9,0.5-1.8,0.7-2.7c0.3-1.8,0.8-3.7,1-5.5l0.4-2.8l0.2-2.8c0.2-1.9,0.1-3.8,0.2-5.7
	c-0.1-7.7-0.9-15.3-2.6-22.8c-1.6-7.5-3.8-15-6.4-22.2c-5.4-14.5-12.2-28.5-20.3-41.7c-4.1-6.6-8.4-13.1-13-19.3
	c-4.6-6.3-9.4-12.3-14.5-18.3s-10.3-11.6-15.7-17.2S150,67.8,144.1,62.7c-11.8-10.2-24.5-19.2-38.1-26.9c-6.8-3.8-13.9-7.1-21.1-9.9
	c-7.3-2.9-14.8-4.9-22.5-6.2c-1.9-0.2-3.9-0.6-5.8-0.7l-2.9-0.2l-2.9,0c-2-0.1-3.9,0.1-5.8,0.2c-1,0.1-1.9,0.2-2.9,0.3
	c-1,0.1-1.9,0.2-2.9,0.5l-2.9,0.6c-0.9,0.2-1.9,0.5-2.8,0.8l-1.4,0.4L30.8,22c-0.9,0.4-1.8,0.7-2.7,1.1
	C24.6,24.8,21.3,26.9,18.4,29.4z"/>
<path class="st0" d="M40.2,3.1c3.7-1.4,7.5-2.4,11.4-2.9c1-0.1,2-0.1,2.9-0.2L56.1,0l1.5,0c1,0,2,0,2.9,0.1l2.9,0.3
	c1,0.1,1.9,0.3,2.9,0.5c1,0.2,1.9,0.4,2.9,0.6c1.9,0.5,3.8,1,5.6,1.6l2.8,1l2.7,1.1c1.8,0.7,3.6,1.6,5.3,2.5
	c7,3.6,13.6,7.8,19.7,12.7c6.1,4.9,11.9,10.2,17.3,15.9c10.8,11.4,20.4,23.8,28.8,37.1c4.2,6.6,8.1,13.5,11.7,20.4s7,14.1,10.1,21.3
	s5.8,14.6,8.3,22s4.7,15,6.5,22.6c3.8,15.3,6.1,30.9,6.9,46.7c0.3,7.9,0.1,15.8-0.7,23.7c-0.7,7.9-2.3,15.8-4.7,23.4
	c-0.7,1.9-1.2,3.8-2,5.7l-1.1,2.8l-1.3,2.7c-0.8,1.8-1.9,3.6-2.8,5.3c-0.5,0.9-1.1,1.7-1.7,2.6c-0.5,0.9-1.1,1.7-1.8,2.5l-1.9,2.4
	c-0.7,0.8-1.4,1.5-2.1,2.3l-1,1.1l-1.2,1c-0.8,0.7-1.5,1.4-2.3,2c-6.5,5.3-14.3,8.6-22.6,9.6c-1,0.1-2.1,0.2-3.1,0.2l-1.5,0.1h-1.5
	c-1,0-2.1,0-3.1-0.1l-3.1-0.3c-1-0.1-2-0.3-3-0.5c-1-0.2-2-0.4-3-0.6c-2-0.5-4-1-5.9-1.7l-2.9-1l-2.8-1.2c-1.9-0.7-3.7-1.7-5.5-2.5
	c-7.1-3.6-13.9-8-20.1-13c-6.2-5-12.1-10.3-17.6-16.1c-5.4-5.8-10.6-11.8-15.3-18.2c-4.8-6.3-9.3-12.8-13.4-19.5s-8-13.7-11.6-20.7
	s-6.8-14.2-9.9-21.5s-5.6-14.7-8.1-22.2s-4.4-15.2-6.1-22.8s-3-15.5-4-23.3c-1-7.8-1.6-15.7-1.7-23.6C4.7,77.3,5,69.4,5.9,61.6
	c0.9-7.8,2.7-15.5,5.1-23c0.7-1.9,1.3-3.7,2.1-5.5l1.1-2.7l1.3-2.6c0.8-1.8,1.9-3.5,2.9-5.2c0.5-0.8,1.1-1.6,1.6-2.5
	c0.5-0.8,1.1-1.6,1.7-2.4l1.8-2.3c0.6-0.7,1.4-1.4,2-2.2l1-1.1l1.1-1c0.8-0.6,1.5-1.3,2.2-1.9C33.2,6.7,36.6,4.7,40.2,3.1z
	 M40.5,3.7c-3.5,1.6-6.9,3.6-9.9,6c-0.8,0.6-1.4,1.3-2.2,1.9l-1.1,1l-1,1.1c-0.6,0.7-1.3,1.4-1.9,2.1l-1.8,2.3
	c-0.6,0.8-1.1,1.6-1.6,2.4c-0.5,0.8-1.1,1.6-1.5,2.5c-0.9,1.7-1.9,3.4-2.7,5.1l-1.2,2.6l-1,2.7c-0.8,1.8-1.3,3.7-1.9,5.5
	C10.4,46.4,9,54.1,8.4,61.8C7.8,69.5,7.7,77.3,8.1,85c1,15.5,3.5,30.8,7.4,45.8c1.9,7.5,4.2,14.9,6.6,22.2s5.3,14.5,8.3,21.7
	s6.3,14.1,9.8,21s7.4,13.6,11.4,20.2c8,13.2,17.3,25.5,27.7,36.9c5.2,5.6,10.8,10.9,16.7,15.8c5.9,4.8,12.2,9.1,19,12.6
	c1.7,0.8,3.4,1.7,5.1,2.4l2.6,1.1l2.7,0.9c1.8,0.7,3.6,1.1,5.4,1.6c0.9,0.2,1.8,0.4,2.7,0.6c0.9,0.2,1.8,0.4,2.7,0.5l2.8,0.3
	c0.9,0.1,1.8,0.1,2.8,0.1h1.4l1.4-0.1c0.9-0.1,1.8,0,2.8-0.2c7.4-0.7,14.3-3.6,20.1-8.2c0.7-0.6,1.4-1.2,2.1-1.8l1-0.9l1-1
	c0.6-0.7,1.3-1.3,1.9-2l1.7-2.2c0.6-0.7,1.1-1.5,1.6-2.3c0.5-0.8,1.1-1.5,1.5-2.3c0.9-1.6,1.9-3.2,2.7-5l1.2-2.5l1.1-2.6
	c0.8-1.7,1.3-3.6,2-5.3c2.3-7.3,3.9-14.8,4.6-22.4c0.8-7.7,1.1-15.4,0.9-23.1c-0.6-15.5-2.7-30.9-6.3-46c-1.8-7.5-3.9-15-6.2-22.4
	s-5.1-14.7-8-21.9s-6.2-14.3-9.6-21.2s-7.2-13.8-11.3-20.4c-8-13.4-17.3-25.9-27.7-37.5c-5.3-5.7-11-11.1-17-16
	c-6-5-12.5-9.3-19.4-12.9c-1.8-0.8-3.5-1.8-5.3-2.5l-2.7-1.1l-2.8-1C72.9,3,70.9,2.6,69.1,2c-0.9-0.2-1.9-0.4-2.9-0.6
	c-0.9-0.2-1.9-0.4-2.9-0.5l-2.9-0.3c-1-0.1-1.9-0.1-2.9-0.1l-1.5,0l-1.5,0.1c-1,0.1-1.9,0.1-2.9,0.2C47.8,1.3,44.1,2.3,40.5,3.7
	L40.5,3.7z"/>
<path class="st0" d="M219.7,29.4c-3-2.5-6.3-4.6-9.8-6.2c-0.9-0.4-1.8-0.7-2.7-1.1l-1.3-0.5l-1.4-0.4c-0.9-0.3-1.9-0.6-2.8-0.8
	l-2.8-0.6c-1-0.2-1.9-0.4-2.9-0.5c-1-0.1-1.9-0.3-2.9-0.3c-1.9-0.1-3.9-0.3-5.8-0.2l-2.9,0l-2.9,0.2c-2,0.1-3.9,0.5-5.8,0.7
	c-7.7,1.3-15.2,3.3-22.5,6.2c-7.3,2.8-14.3,6.1-21.1,9.9c-13.5,7.7-26.3,16.7-38.1,26.9c-5.9,5.1-11.6,10.4-17.1,15.9
	S66.2,89.8,61.1,95.7s-9.9,12-14.5,18.3s-8.9,12.7-13,19.3c-8.1,13.2-15,27.2-20.3,41.7c-2.6,7.2-4.8,14.7-6.4,22.2
	c-1.6,7.5-2.5,15.1-2.6,22.8c0,1.9,0,3.8,0.2,5.7l0.2,2.8l0.4,2.8c0.2,1.9,0.7,3.7,1,5.5c0.2,0.9,0.5,1.8,0.7,2.7
	c0.2,0.9,0.5,1.8,0.8,2.7l1,2.6c0.4,0.8,0.8,1.7,1.2,2.5l0.6,1.3l0.7,1.2c0.5,0.8,0.9,1.6,1.4,2.4c4,6.2,9.7,11.1,16.5,14.1
	c0.8,0.4,1.7,0.7,2.6,1l1.3,0.5l1.3,0.4c0.9,0.2,1.8,0.5,2.7,0.8l2.7,0.5c0.9,0.2,1.8,0.3,2.8,0.4c0.9,0.1,1.9,0.2,2.8,0.3
	c1.9,0,3.7,0.2,5.6,0.1l2.8-0.1l2.8-0.2c1.9-0.1,3.8-0.5,5.6-0.7c7.5-1.2,14.9-3.2,22-6c7.2-2.8,14.1-6,20.8-9.7
	c13.5-7.5,26.1-16.3,37.9-26.3c5.9-5,11.6-10.2,17.1-15.6c5.5-5.4,10.8-11,15.9-16.9c5.1-5.8,10-11.8,14.7-18
	c4.6-6.2,9.1-12.5,13.3-19c8.4-13,15.6-26.8,21.3-41.2c2.8-7.2,5.2-14.6,7-22.2c1.9-7.5,2.9-15.2,3.2-23c0-1.9,0.1-3.9-0.1-5.8
	l-0.2-2.9l-0.3-2.9c-0.2-1.9-0.6-3.8-0.9-5.7c-0.2-1-0.5-1.9-0.7-2.8c-0.2-0.9-0.5-1.9-0.8-2.8l-1-2.7c-0.4-0.9-0.8-1.8-1.2-2.6
	l-0.6-1.3l-0.7-1.3c-0.5-0.8-0.9-1.7-1.5-2.5C225.1,34.9,222.6,32,219.7,29.4z M220.1,28.9c3,2.6,5.6,5.6,7.8,8.9
	c0.5,0.8,1,1.7,1.5,2.5l0.8,1.3l0.6,1.3c0.4,0.9,0.8,1.8,1.2,2.7l1,2.8c0.3,0.9,0.6,1.9,0.9,2.8c0.3,1,0.6,1.9,0.8,2.8
	c0.4,1.9,0.9,3.9,1.1,5.8l0.4,2.9l0.2,3c0.2,2,0.2,3.9,0.2,5.9c0,7.9-0.8,15.8-2.3,23.5c-1.5,7.7-3.6,15.3-6.2,22.8
	c-2.6,7.4-5.6,14.7-9,21.9c-3.4,7.1-7,14.1-11.1,20.9s-8.4,13.4-13,19.8s-9.5,12.6-14.6,18.6s-10.4,11.7-16,17.3s-11.4,10.9-17.5,16
	s-12.4,9.8-18.9,14.4c-6.5,4.5-13.3,8.7-20.2,12.4c-7,3.8-14.3,7-21.7,9.8c-7.5,2.8-15.3,4.8-23.2,6.1c-2,0.2-4,0.6-6,0.7l-3,0.2h-3
	c-2,0.1-4.1-0.1-6.1-0.2c-1-0.1-2-0.2-3-0.4s-2-0.2-3-0.5l-3-0.6c-1-0.3-2-0.6-3-0.9l-1.5-0.5l-1.4-0.6c-1-0.4-1.9-0.7-2.9-1.2
	c-7.6-3.5-14-9.1-18.5-16.2c-0.6-0.9-1-1.8-1.5-2.7l-0.8-1.3l-0.6-1.4c-0.4-0.9-0.9-1.9-1.2-2.8l-1-2.9c-0.3-1-0.6-1.9-0.9-2.9
	c-0.3-1-0.6-2-0.8-3c-0.4-2-0.9-4-1-6l-0.4-3l-0.2-3C0,224,0,222,0,220c0.1-8,1.1-15.9,2.9-23.7c1.7-7.7,4-15.3,6.8-22.7
	c5.6-14.7,12.7-28.9,21.1-42.2c4.2-6.7,8.6-13.2,13.3-19.5c4.7-6.3,9.6-12.4,14.8-18.3c5.2-5.9,10.6-11.6,16.2-17.1
	s11.5-10.7,17.5-15.7c12.1-10,25.2-18.8,39-26.2c6.9-3.7,14.1-6.9,21.4-9.6c7.4-2.7,15-4.7,22.7-5.9c2-0.2,3.9-0.6,5.8-0.7l2.9-0.2
	h2.9c2-0.1,3.9,0.1,5.9,0.2c1,0.1,1.9,0.2,2.9,0.4c1,0.1,1.9,0.2,2.9,0.4l2.9,0.6c1,0.2,1.9,0.5,2.8,0.8l1.4,0.4l1.4,0.5
	c0.9,0.4,1.8,0.7,2.7,1.1C213.9,24.3,217.2,26.4,220.1,28.9L220.1,28.9z"/>
<path class="st0" d="M197.6,3.7c-3.6-1.4-7.4-2.4-11.2-2.9c-1-0.1-1.9-0.1-2.9-0.2L182,0.6h-1.5c-1,0-1.9,0-2.9,0.1L174.8,1
	c-1,0.1-1.9,0.3-2.9,0.5c-1,0.2-1.9,0.4-2.8,0.6c-1.9,0.5-3.8,1-5.6,1.7l-2.8,1L158,5.9c-1.8,0.7-3.5,1.6-5.3,2.5
	c-6.9,3.6-13.4,7.9-19.4,12.9c-6,4.9-11.7,10.3-17,16c-10.4,11.5-19.7,24.1-27.7,37.5c-4,6.7-7.8,13.5-11.3,20.4
	c-3.5,6.9-6.7,14-9.6,21.2c-2.9,7.2-5.6,14.5-8,21.9c-2.4,7.4-4.5,14.9-6.2,22.4c-3.6,15.1-5.7,30.5-6.3,46
	c-0.2,7.7,0,15.4,0.9,23.1c0.8,7.6,2.4,15.1,4.7,22.4c0.6,1.8,1.2,3.6,2,5.3l1.1,2.6l1.2,2.5c0.8,1.7,1.8,3.3,2.7,5
	c0.5,0.8,1,1.6,1.5,2.3c0.5,0.8,1,1.5,1.6,2.3l1.7,2.2c0.6,0.7,1.3,1.4,1.9,2l1,1l1,0.9c0.7,0.6,1.4,1.3,2.1,1.8
	c5.7,4.7,12.7,7.5,20.1,8.2c0.9,0.1,1.8,0.1,2.8,0.2l1.4,0.1h1.4c0.9,0,1.8-0.1,2.8-0.1l2.8-0.3c0.9-0.1,1.8-0.3,2.7-0.5
	c0.9-0.2,1.8-0.3,2.7-0.6c1.8-0.5,3.6-0.9,5.4-1.6l2.7-0.9l2.6-1.1c1.8-0.7,3.4-1.6,5.1-2.4c6.8-3.5,13.1-7.8,19-12.6
	c5.9-4.9,11.5-10.1,16.7-15.8c10.4-11.4,19.7-23.7,27.8-36.9c4.1-6.6,7.9-13.3,11.4-20.2c3.5-6.9,6.8-13.9,9.8-21
	c3-7.1,5.8-14.3,8.3-21.7s4.7-14.7,6.7-22.2c3.9-15,6.4-30.4,7.4-45.8c0.4-7.7,0.3-15.5-0.3-23.2c-0.6-7.7-2-15.4-4.2-22.8
	c-0.6-1.8-1.1-3.7-1.9-5.5l-1.1-2.7l-1.2-2.6c-0.8-1.8-1.8-3.4-2.7-5.1c-0.5-0.8-1-1.6-1.6-2.5c-0.5-0.8-1.1-1.6-1.7-2.4l-1.8-2.3
	c-0.6-0.7-1.3-1.4-2-2.1l-1-1.1l-1.1-1c-0.7-0.6-1.4-1.3-2.2-1.9C204.4,7.3,201.1,5.3,197.6,3.7z M197.8,3.1c3.6,1.6,7,3.6,10.2,6
	c0.8,0.6,1.5,1.3,2.2,1.9l1.1,1l1,1.1c0.7,0.7,1.4,1.4,2,2.2l1.8,2.3c0.6,0.8,1.2,1.6,1.7,2.4c0.5,0.8,1.1,1.6,1.7,2.5
	c1,1.7,2,3.4,2.9,5.2l1.3,2.6l1.2,2.7c0.8,1.8,1.4,3.7,2.1,5.5c2.5,7.5,4.2,15.2,5.2,23c1,7.8,1.4,15.7,1.2,23.6
	c-0.1,7.9-0.7,15.8-1.7,23.6c-1,7.8-2.3,15.6-4,23.3s-3.8,15.3-6.2,22.8s-5.1,14.9-8.1,22.2s-6.3,14.5-9.9,21.5s-7.4,13.9-11.5,20.7
	s-8.7,13.2-13.4,19.5c-4.8,6.3-9.9,12.4-15.3,18.2c-5.5,5.8-11.4,11.2-17.6,16.1c-6.2,5-13,9.4-20.1,13c-1.8,0.8-3.6,1.8-5.5,2.5
	l-2.8,1.2l-2.9,1c-1.9,0.7-3.9,1.1-5.9,1.7c-1,0.2-2,0.4-3,0.6c-1,0.2-2,0.4-3,0.5l-3.1,0.3c-1,0.1-2.1,0.1-3.1,0.1h-1.5l-1.5-0.1
	c-1-0.1-2.1-0.1-3.1-0.2c-4.1-0.5-8.2-1.6-12-3.1c-3.8-1.7-7.4-3.8-10.6-6.4c-0.8-0.6-1.5-1.4-2.3-2l-1.1-1l-1.1-1.1
	c-0.7-0.8-1.4-1.5-2.1-2.3l-1.9-2.4c-0.6-0.8-1.2-1.6-1.8-2.5c-0.5-0.9-1.1-1.7-1.7-2.6c-1-1.8-2-3.5-2.9-5.3l-1.3-2.7l-1.1-2.8
	c-0.8-1.8-1.4-3.8-2-5.7c-2.4-7.6-3.9-15.5-4.6-23.4c-0.8-7.9-1-15.8-0.7-23.7c0.7-15.7,3-31.4,6.9-46.7c1.9-7.6,4.1-15.2,6.5-22.6
	s5.3-14.8,8.3-22s6.5-14.3,10.1-21.3c3.6-7,7.5-13.8,11.7-20.4c8.3-13.3,18-25.7,28.8-37.1c5.4-5.7,11.2-11,17.4-15.9
	c6.1-4.9,12.7-9.2,19.7-12.7c1.8-0.8,3.5-1.8,5.3-2.5l2.7-1.1l2.8-1c1.8-0.7,3.8-1.1,5.6-1.6c1-0.2,1.9-0.4,2.9-0.6
	c1-0.2,1.9-0.4,2.9-0.5l2.9-0.3c1-0.1,2-0.1,2.9-0.1l1.5,0l1.5,0.1c1,0.1,2,0.1,2.9,0.2C190.3,0.7,194.2,1.7,197.8,3.1z"/>
<text transform="matrix(1 0 0 1 236.9 148.49)" class="st1 st2 st3">TM</text>
</svg>
